<svg width="128" height="128" viewBox="0 0 33.867 33.867" xmlns="http://www.w3.org/2000/svg"><path fill="#ccc" d="M0 0h33.867v33.867H0z"/><path d="M9.878 6.35 6.35 27.517h21.167L23.989 6.35Z" fill="#888"/><path style="line-height:1.25;-inkscape-font-specification:&quot;Inter Thin&quot;" d="M6.788 23.283c2.34 0 3.92-1.397 3.92-3.324 0-1.513-.968-2.472-3.093-3.125l-1.406-.43c-1.76-.537-2.596-1.397-2.596-2.646 0-1.62 1.398-2.794 3.274-2.794 1.91 0 3.15 1.199 3.275 2.877h.38c-.116-1.893-1.546-3.258-3.655-3.258-2.1 0-3.654 1.356-3.654 3.175 0 1.422.95 2.423 2.894 3.027l1.389.43c1.992.62 2.811 1.422 2.811 2.744 0 1.745-1.414 2.927-3.539 2.927-2.025 0-3.34-1.091-3.456-2.695h-.38c.116 1.819 1.596 3.092 3.836 3.092zm9.773-.033c1.63 0 2.77-.777 3.407-1.579l1.116 1.414h.488l-1.373-1.736c.488-.736.868-1.72 1.026-2.696l-.38-.05c-.158.927-.456 1.753-.894 2.431l-3.588-4.547.885-.662c1.273-.959 1.76-1.802 1.76-2.794 0-1.439-1.033-2.431-2.43-2.431-1.455 0-2.613 1.083-2.613 2.53 0 1.058.612 1.711 1.736 3.142l.116.149-.612.463c-1.57 1.174-2.116 2.017-2.116 3.125 0 1.803 1.521 3.241 3.472 3.241zm3.159-1.893c-.736.942-1.794 1.513-3.159 1.513-1.736 0-3.092-1.273-3.092-2.86 0-.993.504-1.72 1.976-2.829l.612-.463zm-3.589-5.168-.124-.149c-1.124-1.422-1.662-2-1.662-2.91 0-1.232.993-2.15 2.233-2.15 1.182 0 2.05.819 2.05 2.042 0 .885-.463 1.638-1.604 2.497zm7.045 6.896h7.739v-.38h-7.276l1.091-1.737 6.152-9.806v-.397h-7.657v.397h7.194c-.38.604-.76 1.216-1.141 1.82l-6.102 9.723z" aria-label="S&amp;Z" font-weight="100" font-size="16.933" font-family="Inter"/></svg>